ffmpeg started on 2016-12-09 at 05:12:38
Report written to "Output/x264/results/ffmpeg/sintelplacebo1000k.log"
Command line:
Tools/ffmpeg/ffmpeg -benchmark -y -i Input/y4m/sintel.y4m -c:v libx264 -preset placebo -b:v 1000k -an Output/x264/encoded/sintelplacebo1000k.mkv
ffmpeg version N-82227-gdb23fde Copyright (c) 2000-2016 the FFmpeg developers
  built with gcc 5.4.0 (Ubuntu 5.4.0-6ubuntu1~16.04.2) 20160609
  configuration: --prefix=/home/jaroslav/ffmpeg_build --pkg-config-flags=--static --extra-cflags=-I/home/jaroslav/ffmpeg_build/include --extra-ldflags=-L/home/jaroslav/ffmpeg_build/lib --bindir=/home/jaroslav/bin --enable-gpl --enable-libass --enable-libfdk-aac --enable-libfreetype --enable-libmp3lame --enable-libopus --enable-libtheora --enable-libvorbis --enable-libvpx --enable-libx264 --enable-libx265 --enable-nvenc --enable-libmfx --enable-libxvid --enable-libgsm --enable-libopencore-amrnb --enable-version3 --enable-nonfree
  libavutil      55. 35.100 / 55. 35.100
  libavcodec     57. 66.101 / 57. 66.101
  libavformat    57. 57.100 / 57. 57.100
  libavdevice    57.  2.100 / 57.  2.100
  libavfilter     6. 66.100 /  6. 66.100
  libswscale      4.  3.100 /  4.  3.100
  libswresample   2.  4.100 /  2.  4.100
  libpostproc    54.  2.100 / 54.  2.100
Input #0, yuv4mpegpipe, from 'Input/y4m/sintel.y4m':
  Duration: 00:00:20.83, start: 0.000000, bitrate: 2057307 kb/s
    Stream #0:0: Video: rawvideo (I420 / 0x30323449), yuv420p(progressive), 4096x1744, SAR 1:1 DAR 256:109, 24 fps, 24 tbr, 24 tbn, 24 tbc
[libx264 @ 0x34281c0] using SAR=1/1
[libx264 @ 0x34281c0] DPB size (16 frames, 446464 mbs) > level limit (6 frames, 184320 mbs)
[libx264 @ 0x34281c0] using cpu capabilities: MMX2 SSE2Fast SSSE3 SSE4.2 AVX FMA3 AVX2 LZCNT BMI2
[libx264 @ 0x34281c0] profile High, level 5.2
[libx264 @ 0x34281c0] 264 - core 148 - H.264/MPEG-4 AVC codec - Copyleft 2003-2016 - http://www.videolan.org/x264.html - options: cabac=1 ref=16 deblock=1:0:0 analyse=0x3:0x133 me=tesa subme=11 psy=1 psy_rd=1.00:0.00 mixed_ref=1 me_range=24 chroma_me=1 trellis=2 8x8dct=1 cqm=0 deadzone=21,11 fast_pskip=0 chroma_qp_offset=-2 threads=6 lookahead_threads=1 sliced_threads=0 nr=0 decimate=1 interlaced=0 bluray_compat=0 constrained_intra=0 bframes=16 b_pyramid=2 b_adapt=2 b_bias=0 direct=3 weightb=1 open_gop=0 weightp=2 keyint=250 keyint_min=24 scenecut=40 intra_refresh=0 rc_lookahead=60 rc=abr mbtree=1 bitrate=1000 ratetol=1.0 qcomp=0.60 qpmin=0 qpmax=69 qpstep=4 ip_ratio=1.40 aq=1:1.00
Output #0, matroska, to 'Output/x264/encoded/sintelplacebo1000k.mkv':
  Metadata:
    encoder         : Lavf57.57.100
    Stream #0:0: Video: h264 (libx264) (H264 / 0x34363248), yuv420p, 4096x1744 [SAR 1:1 DAR 256:109], q=-1--1, 1000 kb/s, 24 fps, 1k tbn, 24 tbc
    Metadata:
      encoder         : Lavc57.66.101 libx264
    Side data:
      cpb: bitrate max/min/avg: 0/0/1000000 buffer size: 0 vbv_delay: -1
Stream mapping:
  Stream #0:0 -> #0:0 (rawvideo (native) -> h264 (libx264))
Press [q] to stop, [?] for help
frame=   10 fps=0.0 q=0.0 size=       0kB time=00:00:00.00 bitrate=N/A speed=   0x    frame=   18 fps= 17 q=0.0 size=       0kB time=00:00:00.00 bitrate=N/A speed=   0x    frame=   26 fps= 16 q=0.0 size=       0kB time=00:00:00.00 bitrate=N/A speed=   0x    frame=   29 fps= 14 q=0.0 size=       0kB time=00:00:00.00 bitrate=N/A speed=   0x    frame=   37 fps= 14 q=0.0 size=       0kB time=00:00:00.00 bitrate=N/A speed=   0x    frame=   44 fps=7.2 q=0.0 size=       0kB time=00:00:00.00 bitrate=N/A speed=   0x    frame=   45 fps=4.8 q=0.0 size=       0kB time=00:00:00.00 bitrate=N/A speed=   0x    frame=   46 fps=3.9 q=0.0 size=       0kB time=00:00:00.00 bitrate=N/A speed=   0x    frame=   54 fps=4.4 q=0.0 size=       0kB time=00:00:00.00 bitrate=N/A speed=   0x    frame=   62 fps=4.8 q=0.0 size=       0kB time=00:00:00.00 bitrate=N/A speed=   0x    frame=   70 fps=5.2 q=0.0 size=       0kB time=00:00:00.00 bitrate=N/A speed=   0x    frame=   75 fps=5.4 q=0.0 size=       0kB time=00:00:00.00 bitrate=N/A speed=   0x    frame=   82 fps=5.7 q=0.0 size=       0kB time=00:00:00.00 bitrate=N/A speed=   0x    frame=   84 fps=1.2 q=0.0 size=       0kB time=00:00:00.00 bitrate=N/A speed=   0x    frame=   86 fps=1.3 q=0.0 size=       0kB time=00:00:00.00 bitrate=N/A speed=   0x    frame=   88 fps=1.2 q=45.0 size=       1kB time=-00:00:00.08 bitrate=N/A speed=N/A    frame=   90 fps=1.2 q=49.0 size=       1kB time=00:00:00.00 bitrate=5888.0kbits/s speed=1.35e-05x    frame=   92 fps=1.2 q=56.0 size=       1kB time=00:00:00.08 bitrate=  70.1kbits/s speed=0.00109x    frame=   94 fps=1.2 q=58.0 size=       1kB time=00:00:00.16 bitrate=  35.0kbits/s speed=0.00212x    frame=   96 fps=1.2 q=58.0 size=       1kB time=00:00:00.25 bitrate=  23.5kbits/s speed=0.00308x    frame=   98 fps=1.2 q=59.0 size=       1kB time=00:00:00.33 bitrate=  17.6kbits/s speed=0.00401x    frame=   99 fps=1.2 q=60.0 size=       1kB time=00:00:00.37 bitrate=  15.7kbits/s speed=0.00445x    frame=  100 fps=1.2 q=60.0 size=       1kB time=00:00:00.41 bitrate=  14.1kbits/s speed=0.00489x    frame=  101 fps=1.2 q=60.0 size=       1kB time=00:00:00.45 bitrate=  12.8kbits/s speed=0.0053x    frame=  103 fps=1.2 q=61.0 size=       1kB time=00:00:00.54 bitrate=  10.8kbits/s speed=0.00612x    frame=  104 fps=1.2 q=62.0 size=       1kB time=00:00:00.58 bitrate=  10.1kbits/s speed=0.0065x    frame=  105 fps=1.2 q=62.0 size=       1kB time=00:00:00.62 bitrate=   9.4kbits/s speed=0.00687x    frame=  106 fps=1.1 q=62.0 size=       1kB time=00:00:00.66 bitrate=   8.8kbits/s speed=0.00713x    frame=  108 fps=1.1 q=62.0 size=       1kB time=00:00:00.75 bitrate=   7.8kbits/s speed=0.00778x    frame=  109 fps=1.1 q=63.0 size=       1kB time=00:00:00.79 bitrate=   7.4kbits/s speed=0.00798x    frame=  110 fps=1.1 q=63.0 size=       1kB time=00:00:00.83 bitrate=   7.1kbits/s speed=0.00807x    frame=  111 fps=1.1 q=63.0 size=       1kB time=00:00:00.87 bitrate=   6.7kbits/s speed=0.00836x    frame=  112 fps=1.1 q=63.0 size=       1kB time=00:00:00.91 bitrate=   6.4kbits/s speed=0.00867x    frame=  113 fps=1.1 q=63.0 size=       1kB time=00:00:00.95 bitrate=   6.1kbits/s speed=0.00895x    frame=  115 fps=1.0 q=63.0 size=       1kB time=00:00:01.04 bitrate=   5.6kbits/s speed=0.00929x    frame=  116 fps=1.0 q=63.0 size=       1kB time=00:00:01.08 bitrate=   5.4kbits/s speed=0.00938x    frame=  117 fps=1.0 q=63.0 size=       1kB time=00:00:01.12 bitrate=   5.2kbits/s speed=0.00955x    frame=  118 fps=1.0 q=63.0 size=       1kB time=00:00:01.16 bitrate=   5.0kbits/s speed=0.0098x    frame=  119 fps=1.0 q=63.0 size=       1kB time=00:00:01.20 bitrate=   4.9kbits/s speed=0.01x    frame=  120 fps=1.0 q=63.0 size=       1kB time=00:00:01.25 bitrate=   4.7kbits/s speed=0.0102x    frame=  121 fps=1.0 q=63.0 size=       1kB time=00:00:01.29 bitrate=   4.6kbits/s speed=0.0104x    frame=  122 fps=1.0 q=63.0 size=       1kB time=00:00:01.33 bitrate=   4.4kbits/s speed=0.0104x    frame=  123 fps=0.9 q=63.0 size=       1kB time=00:00:01.37 bitrate=   4.3kbits/s speed=0.0106x    frame=  124 fps=0.9 q=63.0 size=       1kB time=00:00:01.41 bitrate=   4.2kbits/s speed=0.0108x    frame=  125 fps=0.9 q=63.0 size=       1kB time=00:00:01.45 bitrate=   4.0kbits/s speed=0.011x    frame=  126 fps=0.9 q=63.0 size=       1kB time=00:00:01.50 bitrate=   3.9kbits/s speed=0.0112x    frame=  127 fps=0.9 q=64.0 size=       1kB time=00:00:01.54 bitrate=   3.8kbits/s speed=0.0114x    frame=  128 fps=0.9 q=64.0 size=       1kB time=00:00:01.58 bitrate=   3.7kbits/s speed=0.0115x    frame=  129 fps=0.9 q=64.0 size=       1kB time=00:00:01.62 bitrate=   3.6kbits/s speed=0.0116x    frame=  130 fps=0.9 q=64.0 size=       1kB time=00:00:01.66 bitrate=   3.5kbits/s speed=0.0117x    frame=  131 fps=0.9 q=64.0 size=       1kB time=00:00:01.70 bitrate=   3.4kbits/s speed=0.0119x    frame=  132 fps=0.9 q=64.0 size=       1kB time=00:00:01.75 bitrate=   3.4kbits/s speed=0.012x    frame=  133 fps=0.9 q=64.0 size=       1kB time=00:00:01.79 bitrate=   3.3kbits/s speed=0.0122x    frame=  134 fps=0.9 q=64.0 size=       1kB time=00:00:01.83 bitrate=   3.2kbits/s speed=0.0124x    frame=  135 fps=0.9 q=64.0 size=       1kB time=00:00:01.87 bitrate=   3.1kbits/s speed=0.0124x    frame=  136 fps=0.9 q=64.0 size=       1kB time=00:00:01.91 bitrate=   3.1kbits/s speed=0.0126x    frame=  137 fps=0.9 q=64.0 size=       1kB time=00:00:01.95 bitrate=   3.0kbits/s speed=0.0127x    frame=  138 fps=0.9 q=64.0 size=       1kB time=00:00:02.00 bitrate=   2.9kbits/s speed=0.0128x    frame=  139 fps=0.9 q=64.0 size=       1kB time=00:00:02.04 bitrate=   2.9kbits/s speed=0.0129x    frame=  140 fps=0.9 q=64.0 size=       1kB time=00:00:02.08 bitrate=   2.8kbits/s speed=0.0131x    frame=  141 fps=0.9 q=64.0 size=       1kB time=00:00:02.12 bitrate=   2.8kbits/s speed=0.0132x    frame=  142 fps=0.9 q=64.0 size=       1kB time=00:00:02.16 bitrate=   2.7kbits/s speed=0.0133x    frame=  143 fps=0.9 q=64.0 size=       1kB time=00:00:02.20 bitrate=   2.7kbits/s speed=0.0135x    frame=  144 fps=0.9 q=64.0 size=       1kB time=00:00:02.25 bitrate=   2.6kbits/s speed=0.0135x    frame=  145 fps=0.9 q=64.0 size=       1kB time=00:00:02.29 bitrate=   2.6kbits/s speed=0.0137x    frame=  146 fps=0.9 q=64.0 size=       1kB time=00:00:02.33 bitrate=   2.5kbits/s speed=0.0137x    frame=  147 fps=0.9 q=64.0 size=       1kB time=00:00:02.37 bitrate=   2.5kbits/s speed=0.0139x    frame=  148 fps=0.9 q=64.0 size=       1kB time=00:00:02.41 bitrate=   2.4kbits/s speed=0.014x    frame=  149 fps=0.9 q=64.0 size=       1kB time=00:00:02.45 bitrate=   2.4kbits/s speed=0.0141x    frame=  150 fps=0.9 q=64.0 size=       1kB time=00:00:02.50 bitrate=   2.4kbits/s speed=0.0143x    frame=  151 fps=0.9 q=64.0 size=       1kB time=00:00:02.54 bitrate=   2.3kbits/s speed=0.0143x    frame=  152 fps=0.8 q=64.0 size=       1kB time=00:00:02.58 bitrate=   2.3kbits/s speed=0.0144x    frame=  153 fps=0.8 q=64.0 size=       1kB time=00:00:02.62 bitrate=   2.2kbits/s speed=0.0144x    frame=  154 fps=0.8 q=64.0 size=       1kB time=00:00:02.66 bitrate=   2.2kbits/s speed=0.0144x    frame=  155 fps=0.8 q=64.0 size=       1kB time=00:00:02.70 bitrate=   2.2kbits/s speed=0.0146x    frame=  156 fps=0.8 q=64.0 size=       1kB time=00:00:02.75 bitrate=   2.1kbits/s speed=0.0147x    frame=  157 fps=0.8 q=64.0 size=       1kB time=00:00:02.79 bitrate=   2.1kbits/s speed=0.0148x    frame=  158 fps=0.8 q=64.0 size=       1kB time=00:00:02.83 bitrate=   2.1kbits/s speed=0.0149x    frame=  159 fps=0.8 q=64.0 size=       1kB time=00:00:02.87 bitrate=   2.0kbits/s speed=0.015x    frame=  160 fps=0.8 q=65.0 size=       1kB time=00:00:02.91 bitrate=   2.0kbits/s speed=0.0149x    frame=  161 fps=0.8 q=65.0 size=       1kB time=00:00:02.95 bitrate=   2.0kbits/s speed=0.015x    frame=  162 fps=0.8 q=65.0 size=       1kB time=00:00:03.00 bitrate=   2.0kbits/s speed=0.0151x    frame=  163 fps=0.8 q=65.0 size=       1kB time=00:00:03.04 bitrate=   1.9kbits/s speed=0.0152x    frame=  164 fps=0.8 q=65.0 size=       1kB time=00:00:03.08 bitrate=   1.9kbits/s speed=0.0153x    frame=  165 fps=0.8 q=65.0 size=       1kB time=00:00:03.12 bitrate=   1.9kbits/s speed=0.0154x    frame=  166 fps=0.8 q=65.0 size=       1kB time=00:00:03.16 bitrate=   1.9kbits/s speed=0.0154x    frame=  167 fps=0.8 q=65.0 size=       1kB time=00:00:03.20 bitrate=   1.8kbits/s speed=0.0154x    frame=  168 fps=0.8 q=65.0 size=       1kB time=00:00:03.25 bitrate=   1.8kbits/s speed=0.0156x    frame=  169 fps=0.8 q=65.0 size=       1kB time=00:00:03.29 bitrate=   1.8kbits/s speed=0.0156x    frame=  170 fps=0.8 q=65.0 size=       1kB time=00:00:03.33 bitrate=   1.8kbits/s speed=0.0158x    frame=  171 fps=0.8 q=65.0 size=       1kB time=00:00:03.37 bitrate=   1.7kbits/s speed=0.0158x    frame=  172 fps=0.8 q=65.0 size=       1kB time=00:00:03.41 bitrate=   1.7kbits/s speed=0.0159x    frame=  173 fps=0.8 q=65.0 size=       1kB time=00:00:03.45 bitrate=   1.7kbits/s speed=0.0158x    frame=  174 fps=0.8 q=65.0 size=       1kB time=00:00:03.50 bitrate=   1.7kbits/s speed=0.0159x    frame=  175 fps=0.8 q=65.0 size=       1kB time=00:00:03.54 bitrate=   1.7kbits/s speed=0.016x    frame=  176 fps=0.8 q=65.0 size=       1kB time=00:00:03.58 bitrate=   1.6kbits/s speed=0.016x    frame=  177 fps=0.8 q=65.0 size=       1kB time=00:00:03.62 bitrate=   1.6kbits/s speed=0.0161x    frame=  178 fps=0.8 q=65.0 size=       1kB time=00:00:03.66 bitrate=   1.6kbits/s speed=0.0162x    frame=  179 fps=0.8 q=65.0 size=       1kB time=00:00:03.70 bitrate=   1.6kbits/s speed=0.0162x    frame=  180 fps=0.8 q=65.0 size=       1kB time=00:00:03.75 bitrate=   1.6kbits/s speed=0.0162x    frame=  181 fps=0.8 q=65.0 size=       1kB time=00:00:03.79 bitrate=   1.6kbits/s speed=0.0163x    frame=  182 fps=0.8 q=65.0 size=       1kB time=00:00:03.83 bitrate=   1.5kbits/s speed=0.0164x    frame=  183 fps=0.8 q=65.0 size=       1kB time=00:00:03.87 bitrate=   1.5kbits/s speed=0.0165x    frame=  184 fps=0.8 q=65.0 size=       1kB time=00:00:03.91 bitrate=   1.5kbits/s speed=0.0166x    frame=  185 fps=0.8 q=65.0 size=       1kB time=00:00:03.95 bitrate=   1.5kbits/s speed=0.0166x    frame=  186 fps=0.8 q=65.0 size=       1kB time=00:00:04.00 bitrate=   1.5kbits/s speed=0.0166x    frame=  187 fps=0.8 q=65.0 size=       1kB time=00:00:04.04 bitrate=   1.5kbits/s speed=0.0167x    frame=  188 fps=0.8 q=65.0 size=       1kB time=00:00:04.08 bitrate=   1.4kbits/s speed=0.0168x    frame=  189 fps=0.8 q=65.0 size=       1kB time=00:00:04.12 bitrate=   1.4kbits/s speed=0.0169x    frame=  191 fps=0.8 q=65.0 size=       1kB time=00:00:04.20 bitrate=   1.4kbits/s speed=0.0171x    frame=  193 fps=0.8 q=65.0 size=       1kB time=00:00:04.29 bitrate=   1.4kbits/s speed=0.0173x    frame=  195 fps=0.8 q=65.0 size=       1kB time=00:00:04.37 bitrate=   1.3kbits/s speed=0.0174x    frame=  197 fps=0.8 q=64.0 size=       1kB time=00:00:04.45 bitrate=   1.3kbits/s speed=0.0176x    frame=  198 fps=0.8 q=64.0 size=       1kB time=00:00:04.50 bitrate=   1.3kbits/s speed=0.0176x    frame=  199 fps=0.8 q=64.0 size=       1kB time=00:00:04.54 bitrate=   1.3kbits/s speed=0.0176x    frame=  200 fps=0.8 q=64.0 size=       1kB time=00:00:04.58 bitrate=   1.3kbits/s speed=0.0177x    frame=  201 fps=0.8 q=64.0 size=       1kB time=00:00:04.62 bitrate=   1.3kbits/s speed=0.0177x    frame=  202 fps=0.8 q=64.0 size=       1kB time=00:00:04.66 bitrate=   1.3kbits/s speed=0.0178x    frame=  203 fps=0.8 q=64.0 size=       1kB time=00:00:04.70 bitrate=   1.3kbits/s speed=0.0179x    frame=  204 fps=0.8 q=64.0 size=       1kB time=00:00:04.75 bitrate=   1.2kbits/s speed=0.0178x    frame=  205 fps=0.8 q=64.0 size=       1kB time=00:00:04.79 bitrate=   1.2kbits/s speed=0.0179x    frame=  206 fps=0.8 q=65.0 size=       1kB time=00:00:04.83 bitrate=   1.2kbits/s speed=0.0179x    frame=  208 fps=0.8 q=64.0 size=     712kB time=00:00:04.91 bitrate=1186.2kbits/s speed=0.0181x    frame=  209 fps=0.8 q=65.0 size=     712kB time=00:00:04.95 bitrate=1176.4kbits/s speed=0.0182x    frame=  211 fps=0.8 q=64.0 size=     712kB time=00:00:05.04 bitrate=1156.8kbits/s speed=0.0181x    frame=  212 fps=0.8 q=65.0 size=     712kB time=00:00:05.08 bitrate=1147.5kbits/s speed=0.0182x    frame=  213 fps=0.8 q=65.0 size=     712kB time=00:00:05.12 bitrate=1138.1kbits/s speed=0.0182x    frame=  214 fps=0.8 q=65.0 size=     712kB time=00:00:05.16 bitrate=1128.8kbits/s speed=0.0183x    frame=  215 fps=0.8 q=65.0 size=     712kB time=00:00:05.20 bitrate=1119.9kbits/s speed=0.0184x    frame=  216 fps=0.8 q=65.0 size=     712kB time=00:00:05.25 bitrate=1111.0kbits/s speed=0.0184x    frame=  217 fps=0.7 q=65.0 size=     712kB time=00:00:05.29 bitrate=1102.2kbits/s speed=0.0183x    frame=  218 fps=0.8 q=65.0 size=     712kB time=00:00:05.33 bitrate=1093.7kbits/s speed=0.0184x    frame=  219 fps=0.7 q=65.0 size=     712kB time=00:00:05.37 bitrate=1085.2kbits/s speed=0.0184x    frame=  220 fps=0.7 q=65.0 size=     712kB time=00:00:05.41 bitrate=1076.7kbits/s speed=0.0184x    frame=  221 fps=0.7 q=65.0 size=     712kB time=00:00:05.45 bitrate=1068.7kbits/s speed=0.0185x    frame=  222 fps=0.8 q=65.0 size=     712kB time=00:00:05.50 bitrate=1060.5kbits/s speed=0.0186x    frame=  223 fps=0.7 q=65.0 size=     712kB time=00:00:05.54 bitrate=1052.5kbits/s speed=0.0184x    frame=  224 fps=0.7 q=65.0 size=     712kB time=00:00:05.58 bitrate=1044.7kbits/s speed=0.0184x    frame=  225 fps=0.7 q=65.0 size=     712kB time=00:00:05.62 bitrate=1036.9kbits/s speed=0.0185x    frame=  226 fps=0.7 q=65.0 size=     712kB time=00:00:05.66 bitrate=1029.3kbits/s speed=0.0185x    frame=  227 fps=0.7 q=65.0 size=     712kB time=00:00:05.70 bitrate=1021.9kbits/s speed=0.0186x    frame=  228 fps=0.7 q=66.0 size=     712kB time=00:00:05.75 bitrate=1014.4kbits/s speed=0.0186x    frame=  229 fps=0.7 q=66.0 size=     712kB time=00:00:05.79 bitrate=1007.0kbits/s speed=0.0186x    frame=  230 fps=0.7 q=66.0 size=     712kB time=00:00:05.83 bitrate=1000.0kbits/s speed=0.0186x    frame=  231 fps=0.7 q=66.0 size=     712kB time=00:00:05.87 bitrate= 992.8kbits/s speed=0.0186x    frame=  232 fps=0.7 q=66.0 size=     712kB time=00:00:05.91 bitrate= 985.8kbits/s speed=0.0187x    frame=  233 fps=0.7 q=66.0 size=     712kB time=00:00:05.95 bitrate= 979.0kbits/s speed=0.0187x    frame=  234 fps=0.7 q=66.0 size=     712kB time=00:00:06.00 bitrate= 972.1kbits/s speed=0.0188x    frame=  235 fps=0.7 q=66.0 size=     712kB time=00:00:06.04 bitrate= 965.4kbits/s speed=0.0188x    frame=  236 fps=0.7 q=66.0 size=     712kB time=00:00:06.08 bitrate= 958.9kbits/s speed=0.0188x    frame=  237 fps=0.7 q=66.0 size=     712kB time=00:00:06.12 bitrate= 952.3kbits/s speed=0.0188x    frame=  238 fps=0.7 q=66.0 size=     712kB time=00:00:06.16 bitrate= 945.8kbits/s speed=0.0189x    frame=  239 fps=0.7 q=66.0 size=     712kB time=00:00:06.20 bitrate= 939.6kbits/s speed=0.019x    frame=  241 fps=0.7 q=66.0 size=     712kB time=00:00:06.29 bitrate= 927.0kbits/s speed=0.0191x    frame=  243 fps=0.7 q=66.0 size=     712kB time=00:00:06.37 bitrate= 915.0kbits/s speed=0.0193x    frame=  245 fps=0.7 q=65.0 size=     712kB time=00:00:06.45 bitrate= 903.2kbits/s speed=0.0191x    frame=  246 fps=0.7 q=65.0 size=     712kB time=00:00:06.50 bitrate= 897.4kbits/s speed=0.0192x    frame=  247 fps=0.7 q=65.0 size=     712kB time=00:00:06.54 bitrate= 891.6kbits/s speed=0.0193x    frame=  248 fps=0.7 q=65.0 size=     712kB time=00:00:06.58 bitrate= 886.1kbits/s speed=0.0193x    frame=  249 fps=0.7 q=65.0 size=     712kB time=00:00:06.62 bitrate= 880.4kbits/s speed=0.0193x    frame=  250 fps=0.7 q=65.0 size=     712kB time=00:00:06.66 bitrate= 874.9kbits/s speed=0.0194x    frame=  251 fps=0.7 q=65.0 size=     712kB time=00:00:06.70 bitrate= 869.6kbits/s speed=0.0193x    frame=  252 fps=0.7 q=65.0 size=     712kB time=00:00:06.75 bitrate= 864.1kbits/s speed=0.0194x    frame=  253 fps=0.7 q=65.0 size=     712kB time=00:00:06.79 bitrate= 858.8kbits/s speed=0.0195x    frame=  254 fps=0.7 q=65.0 size=     712kB time=00:00:06.83 bitrate= 853.6kbits/s speed=0.0194x    frame=  255 fps=0.7 q=65.0 size=     712kB time=00:00:06.87 bitrate= 848.4kbits/s speed=0.0195x    frame=  257 fps=0.7 q=65.0 size=     712kB time=00:00:06.95 bitrate= 838.3kbits/s speed=0.0194x    frame=  258 fps=0.7 q=65.0 size=     712kB time=00:00:07.00 bitrate= 833.3kbits/s speed=0.0194x    frame=  259 fps=0.7 q=65.0 size=     712kB time=00:00:07.04 bitrate= 828.3kbits/s speed=0.0194x    frame=  260 fps=0.7 q=65.0 size=     712kB time=00:00:07.08 bitrate= 823.5kbits/s speed=0.0194x    frame=  261 fps=0.7 q=65.0 size=     712kB time=00:00:07.12 bitrate= 818.7kbits/s speed=0.0194x    frame=  262 fps=0.7 q=65.0 size=     712kB time=00:00:07.16 bitrate= 813.9kbits/s speed=0.0195x    frame=  263 fps=0.7 q=65.0 size=     712kB time=00:00:07.20 bitrate= 809.2kbits/s speed=0.0194x    frame=  264 fps=0.7 q=65.0 size=     712kB time=00:00:07.25 bitrate= 804.6kbits/s speed=0.0194x    frame=  265 fps=0.7 q=65.0 size=     712kB time=00:00:07.29 bitrate= 799.9kbits/s speed=0.0195x    frame=  266 fps=0.7 q=65.0 size=     712kB time=00:00:07.33 bitrate= 795.4kbits/s speed=0.0195x    frame=  267 fps=0.7 q=65.0 size=     712kB time=00:00:07.37 bitrate= 790.9kbits/s speed=0.0195x    frame=  268 fps=0.7 q=65.0 size=     712kB time=00:00:07.41 bitrate= 786.4kbits/s speed=0.0195x    frame=  269 fps=0.7 q=65.0 size=     712kB time=00:00:07.45 bitrate= 782.1kbits/s speed=0.0196x    frame=  270 fps=0.7 q=65.0 size=     712kB time=00:00:07.50 bitrate= 777.7kbits/s speed=0.0196x    frame=  271 fps=0.7 q=65.0 size=     712kB time=00:00:07.54 bitrate= 773.4kbits/s speed=0.0196x    frame=  272 fps=0.7 q=65.0 size=     712kB time=00:00:07.58 bitrate= 769.2kbits/s speed=0.0196x    frame=  273 fps=0.7 q=65.0 size=     712kB time=00:00:07.62 bitrate= 765.0kbits/s speed=0.0197x    frame=  274 fps=0.7 q=65.0 size=     712kB time=00:00:07.66 bitrate= 760.8kbits/s speed=0.0197x    frame=  276 fps=0.7 q=65.0 size=     712kB time=00:00:07.75 bitrate= 752.7kbits/s speed=0.0198x    frame=  278 fps=0.7 q=65.0 size=     712kB time=00:00:07.83 bitrate= 744.7kbits/s speed=0.02x    frame=  279 fps=0.7 q=65.0 size=     712kB time=00:00:07.87 bitrate= 740.7kbits/s speed=0.0199x    frame=  281 fps=0.7 q=65.0 size=     712kB time=00:00:07.95 bitrate= 733.0kbits/s speed=0.0201x    frame=  282 fps=0.7 q=65.0 size=     712kB time=00:00:08.00 bitrate= 729.1kbits/s speed=0.0201x    frame=  283 fps=0.7 q=65.0 size=     712kB time=00:00:08.04 bitrate= 725.3kbits/s speed=0.0201x    frame=  284 fps=0.7 q=65.0 size=     712kB time=00:00:08.08 bitrate= 721.6kbits/s speed=0.0201x    frame=  285 fps=0.7 q=65.0 size=     712kB time=00:00:08.12 bitrate= 717.9kbits/s speed=0.02x    frame=  286 fps=0.7 q=65.0 size=     712kB time=00:00:08.16 bitrate= 714.2kbits/s speed=0.02x    frame=  287 fps=0.7 q=65.0 size=     712kB time=00:00:08.20 bitrate= 710.7kbits/s speed=0.0201x    frame=  288 fps=0.7 q=65.0 size=     712kB time=00:00:08.25 bitrate= 707.0kbits/s speed=0.0201x    frame=  289 fps=0.7 q=65.0 size=     712kB time=00:00:08.29 bitrate= 703.5kbits/s speed=0.0202x    frame=  290 fps=0.7 q=65.0 size=     712kB time=00:00:08.33 bitrate= 700.0kbits/s speed=0.0202x    frame=  291 fps=0.7 q=65.0 size=     712kB time=00:00:08.37 bitrate= 696.5kbits/s speed=0.0202x    frame=  292 fps=0.7 q=65.0 size=     712kB time=00:00:08.41 bitrate= 693.0kbits/s speed=0.0201x    frame=  293 fps=0.7 q=65.0 size=     712kB time=00:00:08.45 bitrate= 689.7kbits/s speed=0.0202x    frame=  294 fps=0.7 q=65.0 size=     712kB time=00:00:08.50 bitrate= 686.3kbits/s speed=0.0202x    frame=  295 fps=0.7 q=65.0 size=     712kB time=00:00:08.54 bitrate= 682.9kbits/s speed=0.0203x    frame=  296 fps=0.7 q=65.0 size=     712kB time=00:00:08.58 bitrate= 679.6kbits/s speed=0.0203x    frame=  297 fps=0.7 q=65.0 size=     712kB time=00:00:08.62 bitrate= 676.3kbits/s speed=0.0203x    frame=  299 fps=0.7 q=65.0 size=     712kB time=00:00:08.70 bitrate= 669.9kbits/s speed=0.0204x    frame=  300 fps=0.7 q=65.0 size=     712kB time=00:00:08.75 bitrate= 666.6kbits/s speed=0.0204x    frame=  302 fps=0.7 q=65.0 size=     712kB time=00:00:08.83 bitrate= 660.4kbits/s speed=0.0204x    frame=  304 fps=0.7 q=65.0 size=     712kB time=00:00:08.91 bitrate= 654.2kbits/s speed=0.0205x    frame=  305 fps=0.7 q=65.0 size=     712kB time=00:00:08.95 bitrate= 651.2kbits/s speed=0.0205x    frame=  307 fps=0.7 q=65.0 size=     712kB time=00:00:09.04 bitrate= 645.1kbits/s speed=0.0206x    frame=  309 fps=0.7 q=65.0 size=     712kB time=00:00:09.12 bitrate= 639.3kbits/s speed=0.0208x    frame=  310 fps=0.7 q=65.0 size=     712kB time=00:00:09.16 bitrate= 636.3kbits/s speed=0.0207x    frame=  312 fps=0.7 q=65.0 size=     712kB time=00:00:09.25 bitrate= 630.6kbits/s speed=0.0209x    frame=  314 fps=0.7 q=64.0 size=     712kB time=00:00:09.33 bitrate= 625.0kbits/s speed=0.0209x    frame=  315 fps=0.7 q=64.0 size=     712kB time=00:00:09.37 bitrate= 622.2kbits/s speed=0.021x    frame=  317 fps=0.7 q=64.0 size=     712kB time=00:00:09.45 bitrate= 616.7kbits/s speed=0.0211x    frame=  319 fps=0.7 q=64.0 size=     712kB time=00:00:09.54 bitrate= 611.3kbits/s speed=0.0212x    frame=  321 fps=0.7 q=64.0 size=     712kB time=00:00:09.62 bitrate= 606.0kbits/s speed=0.0211x    frame=  323 fps=0.7 q=64.0 size=     712kB time=00:00:09.70 bitrate= 600.9kbits/s speed=0.0213x    frame=  324 fps=0.7 q=64.0 size=     712kB time=00:00:09.75 bitrate= 598.3kbits/s speed=0.0213x    frame=  326 fps=0.7 q=64.0 size=     712kB time=00:00:09.83 bitrate= 593.2kbits/s speed=0.0214x    frame=  328 fps=0.7 q=64.0 size=     712kB time=00:00:09.91 bitrate= 588.2kbits/s speed=0.0214x    frame=  330 fps=0.7 q=64.0 size=    1253kB time=00:00:10.00 bitrate=1026.6kbits/s speed=0.0215x    frame=  332 fps=0.7 q=64.0 size=    1253kB time=00:00:10.08 bitrate=1018.2kbits/s speed=0.0216x    frame=  333 fps=0.7 q=61.0 size=    1253kB time=00:00:10.12 bitrate=1014.0kbits/s speed=0.0216x    frame=  334 fps=0.7 q=64.0 size=    1253kB time=00:00:10.16 bitrate=1009.8kbits/s speed=0.0215x    frame=  335 fps=0.7 q=64.0 size=    1253kB time=00:00:10.20 bitrate=1005.7kbits/s speed=0.0215x    frame=  336 fps=0.7 q=64.0 size=    1253kB time=00:00:10.25 bitrate=1001.6kbits/s speed=0.0216x    frame=  337 fps=0.7 q=64.0 size=    1253kB time=00:00:10.29 bitrate= 997.5kbits/s speed=0.0216x    frame=  338 fps=0.7 q=64.0 size=    1309kB time=00:00:10.33 bitrate=1038.0kbits/s speed=0.0217x    frame=  344 fps=0.7 q=64.0 size=    1309kB time=00:00:10.58 bitrate=1013.5kbits/s speed=0.0221x    frame=  347 fps=0.7 q=64.0 size=    1309kB time=00:00:10.70 bitrate=1001.7kbits/s speed=0.0223x    frame=  349 fps=0.7 q=64.0 size=    1309kB time=00:00:10.79 bitrate= 993.9kbits/s speed=0.0225x    frame=  351 fps=0.7 q=64.0 size=    1309kB time=00:00:10.87 bitrate= 986.3kbits/s speed=0.0226x    frame=  355 fps=0.7 q=63.0 size=    1309kB time=00:00:11.04 bitrate= 971.4kbits/s speed=0.0228x    frame=  358 fps=0.7 q=63.0 size=    1309kB time=00:00:11.16 bitrate= 960.5kbits/s speed=0.0229x    frame=  361 fps=0.7 q=63.0 size=    1309kB time=00:00:11.29 bitrate= 949.9kbits/s speed=0.023x    frame=  365 fps=0.7 q=63.0 size=    1309kB time=00:00:11.45 bitrate= 936.1kbits/s speed=0.0232x    frame=  369 fps=0.7 q=63.0 size=    1309kB time=00:00:11.62 bitrate= 922.7kbits/s speed=0.0234x    frame=  372 fps=0.7 q=63.0 size=    1309kB time=00:00:11.75 bitrate= 912.9kbits/s speed=0.0235x    frame=  374 fps=0.7 q=63.0 size=    1309kB time=00:00:11.83 bitrate= 906.5kbits/s speed=0.0237x    frame=  376 fps=0.7 q=63.0 size=    1309kB time=00:00:11.91 bitrate= 900.1kbits/s speed=0.0237x    frame=  378 fps=0.8 q=63.0 size=    1309kB time=00:00:12.00 bitrate= 893.9kbits/s speed=0.0238x    frame=  380 fps=0.8 q=63.0 size=    1309kB time=00:00:12.08 bitrate= 887.7kbits/s speed=0.0239x    frame=  385 fps=0.8 q=62.0 size=    1309kB time=00:00:12.29 bitrate= 872.6kbits/s speed=0.0242x    frame=  388 fps=0.8 q=62.0 size=    1309kB time=00:00:12.41 bitrate= 863.8kbits/s speed=0.0243x    frame=  393 fps=0.8 q=62.0 size=    1309kB time=00:00:12.62 bitrate= 849.6kbits/s speed=0.0247x    frame=  394 fps=0.8 q=62.0 size=    1309kB time=00:00:12.66 bitrate= 846.8kbits/s speed=0.0246x    frame=  400 fps=0.8 q=61.0 size=    1309kB time=00:00:12.91 bitrate= 830.4kbits/s speed=0.0248x    frame=  404 fps=0.8 q=61.0 size=    1309kB time=00:00:13.08 bitrate= 819.9kbits/s speed=0.0251x    frame=  406 fps=0.8 q=61.0 size=    1309kB time=00:00:13.16 bitrate= 814.6kbits/s speed=0.0251x    frame=  409 fps=0.8 q=61.0 size=    1309kB time=00:00:13.29 bitrate= 807.0kbits/s speed=0.0253x    frame=  411 fps=0.8 q=61.0 size=    1309kB time=00:00:13.37 bitrate= 802.0kbits/s speed=0.0254x    frame=  412 fps=0.8 q=61.0 size=    1309kB time=00:00:13.41 bitrate= 799.5kbits/s speed=0.0254x    frame=  416 fps=0.8 q=61.0 size=    1309kB time=00:00:13.58 bitrate= 789.7kbits/s speed=0.0256x    frame=  419 fps=0.8 q=60.0 size=    1309kB time=00:00:13.70 bitrate= 782.5kbits/s speed=0.0258x    frame=  421 fps=0.8 q=60.0 size=    1309kB time=00:00:13.79 bitrate= 777.7kbits/s speed=0.0258x    frame=  426 fps=0.8 q=60.0 size=    1309kB time=00:00:14.00 bitrate= 766.2kbits/s speed=0.0259x    frame=  427 fps=0.8 q=60.0 size=    1309kB time=00:00:14.04 bitrate= 763.9kbits/s speed=0.026x    frame=  432 fps=0.8 q=60.0 size=    1309kB time=00:00:14.25 bitrate= 752.7kbits/s speed=0.0261x    frame=  433 fps=0.8 q=60.0 size=    1309kB time=00:00:14.29 bitrate= 750.5kbits/s speed=0.0262x    frame=  438 fps=0.8 q=59.0 size=    1309kB time=00:00:14.50 bitrate= 739.8kbits/s speed=0.0263x    frame=  439 fps=0.8 q=59.0 size=    1309kB time=00:00:14.54 bitrate= 737.6kbits/s speed=0.0264x    frame=  443 fps=0.8 q=59.0 size=    1309kB time=00:00:14.70 bitrate= 729.3kbits/s speed=0.0265x    frame=  446 fps=0.8 q=59.0 size=    1309kB time=00:00:14.83 bitrate= 723.1kbits/s speed=0.0267x    frame=  447 fps=0.8 q=59.0 size=    1309kB time=00:00:14.87 bitrate= 721.1kbits/s speed=0.0266x    frame=  448 fps=0.8 q=59.0 size=    1309kB time=00:00:14.91 bitrate= 719.1kbits/s speed=0.0265x    frame=  450 fps=0.8 q=59.0 size=    1309kB time=00:00:15.00 bitrate= 715.1kbits/s speed=0.0266x    frame=  452 fps=0.8 q=59.0 size=    1309kB time=00:00:15.08 bitrate= 711.2kbits/s speed=0.0267x    frame=  454 fps=0.8 q=59.0 size=    1309kB time=00:00:15.16 bitrate= 707.2kbits/s speed=0.0268x    frame=  455 fps=0.8 q=59.0 size=    1309kB time=00:00:15.20 bitrate= 705.3kbits/s speed=0.0266x    frame=  457 fps=0.8 q=59.0 size=    1309kB time=00:00:15.29 bitrate= 701.4kbits/s speed=0.0268x    frame=  459 fps=0.8 q=59.0 size=    1604kB time=00:00:15.37 bitrate= 854.5kbits/s speed=0.0268x    frame=  461 fps=0.8 q=59.0 size=    1604kB time=00:00:15.45 bitrate= 849.9kbits/s speed=0.0269x    frame=  463 fps=0.8 q=59.0 size=    1604kB time=00:00:15.54 bitrate= 845.3kbits/s speed=0.0269x    frame=  466 fps=0.8 q=59.0 size=    1604kB time=00:00:15.66 bitrate= 838.5kbits/s speed=0.0271x    frame=  467 fps=0.8 q=59.0 size=    1604kB time=00:00:15.70 bitrate= 836.4kbits/s speed=0.0271x    frame=  470 fps=0.8 q=58.0 size=    1604kB time=00:00:15.83 bitrate= 829.8kbits/s speed=0.0272x    frame=  472 fps=0.8 q=58.0 size=    1604kB time=00:00:15.91 bitrate= 825.4kbits/s speed=0.0273x    frame=  474 fps=0.8 q=58.0 size=    1604kB time=00:00:16.00 bitrate= 821.1kbits/s speed=0.0274x    frame=  476 fps=0.8 q=58.0 size=    1604kB time=00:00:16.08 bitrate= 816.9kbits/s speed=0.0274x    frame=  478 fps=0.8 q=58.0 size=    1604kB time=00:00:16.16 bitrate= 812.6kbits/s speed=0.0275x    frame=  479 fps=0.8 q=58.0 size=    1604kB time=00:00:16.20 bitrate= 810.6kbits/s speed=0.0276x    frame=  481 fps=0.8 q=58.0 size=    1604kB time=00:00:16.29 bitrate= 806.4kbits/s speed=0.0276x    frame=  483 fps=0.8 q=58.0 size=    1604kB time=00:00:16.37 bitrate= 802.3kbits/s speed=0.0276x    frame=  485 fps=0.8 q=58.0 size=    1604kB time=00:00:16.45 bitrate= 798.2kbits/s speed=0.0277x    frame=  487 fps=0.8 q=58.0 size=    1604kB time=00:00:16.54 bitrate= 794.2kbits/s speed=0.0277x    frame=  489 fps=0.8 q=58.0 size=    1604kB time=00:00:16.62 bitrate= 790.2kbits/s speed=0.0278x    frame=  490 fps=0.8 q=58.0 size=    1604kB time=00:00:16.66 bitrate= 788.2kbits/s speed=0.0277x    frame=  492 fps=0.8 q=58.0 size=    1604kB time=00:00:16.75 bitrate= 784.3kbits/s speed=0.0278x    frame=  493 fps=0.8 q=58.0 size=    1604kB time=00:00:16.79 bitrate= 782.4kbits/s speed=0.0278x    frame=  494 fps=0.8 q=58.0 size=    1604kB time=00:00:16.83 bitrate= 780.5kbits/s speed=0.0278x    frame=  496 fps=0.8 q=58.0 size=    1604kB time=00:00:16.91 bitrate= 776.6kbits/s speed=0.0279x    frame=  497 fps=0.8 q=58.0 size=    1604kB time=00:00:16.95 bitrate= 774.7kbits/s speed=0.0279x    frame=  499 fps=0.8 q=58.0 size=    1604kB time=00:00:17.04 bitrate= 770.9kbits/s speed=0.028x    frame=  500 fps=0.8 q=58.0 size=    1604kB time=00:00:17.08 bitrate= 769.0kbits/s speed=0.0279x    frame=  500 fps=0.7 q=-1.0 Lsize=    2080kB time=00:00:20.70 bitrate= 822.9kbits/s speed=0.0308x    
video:2076kB audio:0kB subtitle:0kB other streams:0kB global headers:0kB muxing overhead: 0.207589%
bench: utime=2348.684s
bench: maxrss=4206672kB
[libx264 @ 0x34281c0] frame I:3     Avg QP:46.06  size: 16979
[libx264 @ 0x34281c0] frame P:267   Avg QP:50.92  size:  6440
[libx264 @ 0x34281c0] frame B:230   Avg QP:50.80  size:  1542
[libx264 @ 0x34281c0] consecutive B-frames: 34.8% 13.6% 12.0% 16.0% 14.0%  9.6%  0.0%  0.0%  0.0%  0.0%  0.0%  0.0%  0.0%  0.0%  0.0%  0.0%  0.0%
[libx264 @ 0x34281c0] mb I  I16..4: 28.9% 14.3% 56.8%
[libx264 @ 0x34281c0] mb P  I16..4:  1.4%  5.7% 49.0%  P16..4:  3.1%  0.3%  0.8%  0.0%  0.0%    skip:39.7%
[libx264 @ 0x34281c0] mb B  I16..4:  0.4%  0.4%  0.1%  B16..8:  4.5%  0.2%  0.0%  direct: 0.0%  skip:94.4%  L0:40.3% L1:59.1% BI: 0.6%
[libx264 @ 0x34281c0] final ratefactor: 55.08
[libx264 @ 0x34281c0] 8x8 transform intra:10.8% inter:70.3%
[libx264 @ 0x34281c0] direct mvs  spatial:98.7% temporal:1.3%
[libx264 @ 0x34281c0] coded y,uvDC,uvAC intra: 0.4% 2.9% 0.0% inter: 0.0% 0.3% 0.0%
[libx264 @ 0x34281c0] i16 v,h,dc,p: 45% 21%  1% 33%
[libx264 @ 0x34281c0] i8 v,h,dc,ddl,ddr,vr,hd,vl,hu:  2%  0% 96%  0%  0%  0%  0%  0%  0%
[libx264 @ 0x34281c0] i4 v,h,dc,ddl,ddr,vr,hd,vl,hu:  0%  0% 100%  0%  0%  0%  0%  0%  0%
[libx264 @ 0x34281c0] i8c dc,h,v,p: 49% 45%  5%  0%
[libx264 @ 0x34281c0] Weighted P-Frames: Y:3.0% UV:2.6%
[libx264 @ 0x34281c0] ref P L0: 35.2%  0.4% 20.7%  7.8%  6.9%  6.2%  6.1%  2.2%  2.2%  2.1%  1.9%  1.8%  1.6%  1.7%  2.1%  1.2%
[libx264 @ 0x34281c0] ref B L0: 69.6% 10.8%  7.2%  3.3%  2.3%  1.6%  1.3%  0.5%  0.5%  0.4%  0.6%  0.6%  0.5%  0.6%  0.2%
[libx264 @ 0x34281c0] ref B L1: 94.2%  5.8%
[libx264 @ 0x34281c0] kb/s:816.05
